Coordinates
version=1
nRows=14
nColumns=24
inDegrees=yes

Units are S.I. units (second, meters, Newtons, ...)
Angles are in degrees.

endheader
time	pelvis_tilt	pelvis_list	pelvis_rotation	pelvis_tx	pelvis_ty	pelvis_tz	hip_flexion_r	hip_adduction_r	hip_rotation_r	knee_angle_r	ankle_angle_r	subtalar_angle_r	mtp_angle_r	hip_flexion_l	hip_adduction_l	hip_rotation_l	knee_angle_l	ankle_angle_l	subtalar_angle_l	mtp_angle_l	lumbar_extension	lumbar_bending	lumbar_rotation
      0.66200000	     -3.01166229	      8.61699654	      2.71314671	     -0.02165451	      0.95956349	      0.26578925	     30.83279949	     -9.65340836	     -1.35253625	      1.82099713	      2.64980307	     -6.17209959	      5.78569919	    -23.43702470	     11.35073939	     10.03816447	      4.15940276	      9.64367223	     -5.11440280	      3.52644508	     -9.57705591	      0.06421560	    -13.04009131
      0.66616667	     -3.10196786	      8.48888881	      2.73295707	     -0.01576058	      0.95886378	      0.26616344	     30.99843224	     -9.47873607	     -0.97846017	      1.16329509	      2.59282729	     -6.38682261	      5.79175085	    -23.51817022	     11.18681655	      9.95194161	      3.83098784	      9.57407839	     -5.05921838	      3.53859570	     -9.44232608	      0.27508582	    -13.02499994
      0.67033333	     -3.24991934	      8.36054455	      2.75837318	     -0.00984226	      0.95812966	      0.26662486	     31.19147259	     -9.29231028	     -0.48248412	      0.55541918	      2.27378881	     -6.92494859	      5.80040983	    -23.50216009	     11.02383861	      9.79386765	      3.42993430	      9.57166502	     -4.81558167	      3.59973233	     -9.26799754	      0.42812200	    -12.97781932
      0.67450000	     -3.34797536	      8.20260471	      2.76670276	     -0.00385603	      0.95748757	      0.26708230	     31.33553851	     -9.07059923	     -0.04485761	     -0.09196171	      1.94785149	     -7.40174422	      5.81565409	    -23.53214427	     10.83715656	      9.59887665	      3.02018956	      9.54644209	     -4.60419384	      3.69862300	     -9.11955101	      0.65498124	    -12.92116772
      0.67866667	     -3.46051861	      8.02925764	      2.77454271	      0.00217580	      0.95685384	      0.26755987	     31.49918477	     -8.82989450	      0.36192129	     -0.76951051	      1.57915652	     -7.84843401	      5.83627828	    -23.53929935	     10.63630015	      9.41937331	      2.59693543	      9.49122663	     -4.43710642	      3.82784909	     -8.95790773	      0.89362443	    -12.86460989
      0.68283333	     -3.57495502	      7.84192215	      2.77710333	      0.00825734	      0.95625112	      0.26805118	     31.66601717	     -8.57045880	      0.74794548	     -1.46688616	      1.14977139	     -8.29543602	      5.86477178	    -23.53428548	     10.42484576	      9.23202048	      2.15722080	      9.41357089	     -4.28565190	      3.99498783	     -8.79375127	      1.14939806	    -12.80061124
      0.68700000	     -3.68309701	      7.62186617	      2.76428398	      0.01441244	      0.95567755	      0.26854509	     31.83709639	     -8.27399245	      1.06614042	     -2.20248703	      0.75534570	     -8.58006677	      5.88198840	    -23.53874031	     10.18777155	      9.05432755	      1.72850580	      9.25942012	     -4.24601964	      4.09720962	     -8.62395659	      1.47117252	    -12.74618614
      0.69116667	     -3.81874903	      7.42821514	      2.77399103	      0.02055450	      0.95511171	      0.26908571	     32.02690142	     -8.00251869	      1.42822095	     -2.91563556	      0.13122063	     -9.16539860	      5.92575161	    -23.48018265	      9.96874064	      8.86242108	      1.22684088	      9.18018270	     -4.05208633	      4.34565477	     -8.44110356	      1.69848091	    -12.66825272
      0.69533333	     -3.93596200	      7.20460123	      2.76237987	      0.02677531	      0.95459232	      0.26963103	     32.20850474	     -7.69528479	      1.72294305	     -3.66282903	     -0.45811070	     -9.60380704	      5.98887766	    -23.43668117	      9.72876702	      8.63957371	      0.72281545	      9.03065167	     -3.92451813	      4.65873479	     -8.25491124	      2.00203475	    -12.59168427
      0.69950000	     -4.05899758	      6.97204320	      2.74927665	      0.03303704	      0.95409854	      0.27018926	     32.40202614	     -7.37801939	      1.98129764	     -4.42745094	     -1.07685122	    -10.02194688	      6.06903983	    -23.37648213	      9.48138658	      8.42750354	      0.20101945	      8.84926917	     -3.83147329	      5.03944774	     -8.06382544	      2.31154447	    -12.51797390
      0.70366667	     -4.17817616	      6.73199045	      2.73177486	      0.03933776	      0.95363896	      0.27075074	     32.60049080	     -7.05263365	      2.20117361	     -5.21390139	     -1.71993909	    -10.42046327	      6.16718364	    -23.31138663	      9.22860842	      8.21715788	     -0.33555819	      8.63331055	     -3.75922211	      5.49081144	     -7.87072212	      2.63505436	    -12.43938497
      0.70783333	     -4.27189501	      6.46725822	      2.69103782	      0.04571152	      0.95323125	      0.27131052	     32.79272743	     -6.70099980	      2.32773462	     -6.05098100	     -2.25750670	    -10.56254238	      6.20152705	    -23.27784136	      8.96022167	      8.01513146	     -0.85605824	      8.31745340	     -3.80303024	      5.65890140	     -7.71059951	      3.01065891	    -12.37894690
      0.71200000	     -4.40602875	      6.24371971	      2.68204752	      0.05203760	      0.95281634	      0.27192402	     33.01463631	     -6.38897231	      2.54400605	     -6.85234071	     -3.00742865	    -11.16015581	      6.32933690	    -23.14562260	      8.72168756	      7.79252999	     -1.49583517	      8.10653961	     -3.69023623	      6.26032933	     -7.50212397	      3.29090663	    -12.29119320
      0.71616667	     -4.48839199	      5.97361934	      2.63389104	      0.05847387	      0.95247361	      0.27252590	     33.21915561	     -6.03034527	      2.60549073	     -7.74733699	     -3.56590320	    -11.32226155	      7.72771138	    -23.07882890	      8.44504787	      7.47140069	     -2.08488875	      7.68047497	     -3.61633084	     12.26966826	     -7.35856110	      3.65711513	    -12.20975993
